# xmcd
#
# Track frame offsets:
#	150
#	39590
#	81058
#	102097
#	132544
#	157402
#	174390
#	202200
#	246594
#
# Disc length: 3633 seconds
#
# Revision: 0
# Processed by: cddbd v1.5.1PL0 Copyright (c) Steve Scherf et al.
# Submitted via: dBpowerAMP V4.0
#
DISCID=830e2f09
DTITLE=Various Artist - funk academy
DYEAR=1900
DGENRE=Funk
TTITLE0=Maceo Parker - Basic funck: 101
TTITLE1=Bill Evans/Randy Brecker - Greed
TTITLE2=Denis Chambers - Amos Ignored
TTITLE3=Bill Evans - Jean-Pierre
TTITLE4=Mike Stern - Last one down
TTITLE5=Mezzoforte - Weather ahead
TTITLE6=Tok Tok Tok - The Breakdown
TTITLE7=Bill Evans/Randy Brecker - Soul Bop
TTITLE8=Maceo Parker - Wondeful world
EXTD=
EXTT0=
EXTT1=
EXTT2=
EXTT3=
EXTT4=
EXTT5=
EXTT6=
EXTT7=
EXTT8=
PLAYORDER=
